<svg width="20" height="20" viewBox="0 0 20 20" fill="none" xmlns="http://www.w3.org/2000/svg">
<path d="M6.99429 2V3.99715H8.99144V4.05706C5.59629 4.53638 3 7.47218 3 10.9872C3 14.8417 6.13552 17.9772 9.99001 17.9772C13.8445 17.9772 16.98 14.8417 16.98 10.9872C16.98 10.0884 16.7803 9.24964 16.4807 8.49073L14.6633 9.24964C14.883 9.82882 14.9829 10.388 14.9829 11.0071C14.9829 13.7832 12.766 16 9.99001 16C7.21398 16 4.99715 13.7832 4.99715 11.0071C4.99715 8.2311 7.21398 6.01427 9.99001 6.01427C10.5892 6.01427 11.1683 6.11412 11.7475 6.33381L12.4265 4.45649C11.9672 4.29672 11.4879 4.21683 10.9886 4.13695V4.01712H12.9857V2.01997H6.99429V2ZM16.98 4.31669C16.98 4.31669 9.69044 9.92867 9.31098 10.3081C8.93153 10.7076 8.93153 11.2867 9.31098 11.6862C9.69044 12.0856 10.2896 12.0856 10.689 11.6862C11.0884 11.2867 17 4.31669 17 4.31669H16.98Z" fill="#523EA1"/>
</svg>
