<svg
            width="100"
            height="28"
            viewBox="0 0 100 28"
            fill="none"
            xmlns="http://www.w3.org/2000/svg"
          >
            <rect width="100" height="28" rx="14" fill="white" />
            <path
              d="M84.6219 19.9151C83.7816 19.9151 83.0277 19.7137 82.3601 19.3108C81.6924 18.9079 81.1687 18.3554 80.7888 17.6532C80.4205 16.9396 80.2363 16.1396 80.2363 15.2533C80.2363 14.4015 80.409 13.6187 80.7543 12.9051C81.1111 12.1914 81.6119 11.6216 82.2565 11.1957C82.9011 10.7698 83.6493 10.5569 84.5011 10.5569C85.3644 10.5569 86.1126 10.7526 86.7456 11.1439C87.3787 11.5238 87.8622 12.0533 88.196 12.7324C88.5413 13.4115 88.714 14.1885 88.714 15.0633C88.714 15.236 88.6967 15.3856 88.6622 15.5123H81.7039C81.7385 16.1799 81.8996 16.7439 82.1874 17.2043C82.4752 17.6648 82.8378 18.0101 83.2752 18.2403C83.7241 18.4705 84.1903 18.5856 84.6737 18.5856C85.8018 18.5856 86.6708 18.0561 87.2809 16.9971L88.524 17.6014C88.1442 18.3151 87.6262 18.8791 86.9701 19.2935C86.3255 19.7079 85.5428 19.9151 84.6219 19.9151ZM87.16 14.3036C87.137 13.9353 87.0334 13.5669 86.8492 13.1986C86.6651 12.8303 86.3715 12.5195 85.9687 12.2662C85.5773 12.013 85.0823 11.8864 84.4838 11.8864C83.7931 11.8864 83.2061 12.1108 82.7226 12.5598C82.2507 12.9972 81.9399 13.5784 81.7903 14.3036H87.16Z"
              fill="#5F6368"
            />
            <path
              d="M77.1455 7.27637H78.6131V19.6389H77.1455V7.27637Z"
              fill="#5F6368"
            />
            <path
              d="M70.7107 23.6446C69.6748 23.6446 68.8172 23.4029 68.1381 22.9194C67.4705 22.436 67.0216 21.8547 66.7913 21.1755L68.1208 20.6057C68.3165 21.1122 68.6388 21.5208 69.0877 21.8316C69.5482 22.1539 70.0892 22.3151 70.7107 22.3151C71.6201 22.3151 72.3222 22.0503 72.8172 21.5208C73.3237 20.9914 73.5769 20.2432 73.5769 19.2763V18.2921H73.5078C73.2201 18.741 72.8114 19.1094 72.282 19.3971C71.764 19.6734 71.1712 19.8115 70.5035 19.8115C69.7438 19.8115 69.0474 19.6158 68.4144 19.2245C67.7928 18.8331 67.2978 18.2863 66.9295 17.5842C66.5611 16.882 66.377 16.082 66.377 15.1842C66.377 14.2979 66.5611 13.5036 66.9295 12.8015C67.2978 12.0878 67.7928 11.5353 68.4144 11.1439C69.0474 10.7526 69.7438 10.5569 70.5035 10.5569C71.1712 10.5569 71.764 10.7008 72.282 10.9885C72.8114 11.2648 73.2201 11.6331 73.5078 12.0936H73.5769V10.8331H74.9755V19.2935C74.9755 20.7093 74.5841 21.7856 73.8014 22.5223C73.0186 23.2705 71.9884 23.6446 70.7107 23.6446ZM70.7107 18.482C71.2402 18.482 71.7179 18.3496 72.1438 18.0849C72.5812 17.8202 72.9266 17.4403 73.1798 16.9453C73.4445 16.4504 73.5769 15.8633 73.5769 15.1842C73.5769 14.4936 73.4445 13.9007 73.1798 13.4058C72.9266 12.9108 72.5812 12.5367 72.1438 12.2835C71.7179 12.0187 71.2402 11.8864 70.7107 11.8864C70.1812 11.8864 69.6978 12.0187 69.2604 12.2835C68.823 12.5482 68.4719 12.9281 68.2072 13.4231C67.9539 13.918 67.8273 14.5051 67.8273 15.1842C67.8273 15.8633 67.9539 16.4561 68.2072 16.9626C68.4719 17.4576 68.823 17.8374 69.2604 18.1022C69.6978 18.3554 70.1812 18.482 70.7107 18.482Z"
              fill="#5F6368"
            />
            <path
              d="M60.6145 19.9151C59.7512 19.9151 58.9743 19.7079 58.2836 19.2935C57.593 18.8791 57.052 18.3151 56.6606 17.6014C56.2807 16.8878 56.0908 16.0993 56.0908 15.236C56.0908 14.3727 56.2807 13.5842 56.6606 12.8705C57.052 12.1569 57.593 11.5928 58.2836 11.1785C58.9743 10.7641 59.7512 10.5569 60.6145 10.5569C61.4778 10.5569 62.2548 10.7641 62.9455 11.1785C63.6361 11.5928 64.1713 12.1569 64.5512 12.8705C64.9426 13.5842 65.1383 14.3727 65.1383 15.236C65.1383 16.0993 64.9426 16.8878 64.5512 17.6014C64.1713 18.3151 63.6361 18.8791 62.9455 19.2935C62.2548 19.7079 61.4778 19.9151 60.6145 19.9151ZM60.6145 18.5856C61.1555 18.5856 61.6563 18.4532 62.1167 18.1885C62.5886 17.9122 62.9627 17.5209 63.239 17.0144C63.5267 16.5079 63.6706 15.9151 63.6706 15.236C63.6706 14.5569 63.5267 13.9641 63.239 13.4576C62.9627 12.9511 62.5886 12.5655 62.1167 12.3008C61.6563 12.0245 61.1555 11.8864 60.6145 11.8864C60.0735 11.8864 59.5671 12.0245 59.0951 12.3008C58.6232 12.5655 58.2433 12.9511 57.9556 13.4576C57.6793 13.9641 57.5412 14.5569 57.5412 15.236C57.5412 15.9151 57.6793 16.5079 57.9556 17.0144C58.2433 17.5209 58.6232 17.9122 59.0951 18.1885C59.5671 18.4532 60.0735 18.5856 60.6145 18.5856Z"
              fill="#5F6368"
            />
            <path
              d="M50.3294 19.9151C49.4661 19.9151 48.6891 19.7079 47.9985 19.2935C47.3078 18.8791 46.7668 18.3151 46.3754 17.6014C45.9956 16.8878 45.8057 16.0993 45.8057 15.236C45.8057 14.3727 45.9956 13.5842 46.3754 12.8705C46.7668 12.1569 47.3078 11.5928 47.9985 11.1785C48.6891 10.7641 49.4661 10.5569 50.3294 10.5569C51.1927 10.5569 51.9697 10.7641 52.6603 11.1785C53.3509 11.5928 53.8862 12.1569 54.266 12.8705C54.6574 13.5842 54.8531 14.3727 54.8531 15.236C54.8531 16.0993 54.6574 16.8878 54.266 17.6014C53.8862 18.3151 53.3509 18.8791 52.6603 19.2935C51.9697 19.7079 51.1927 19.9151 50.3294 19.9151ZM50.3294 18.5856C50.8704 18.5856 51.3711 18.4532 51.8315 18.1885C52.3035 17.9122 52.6776 17.5209 52.9538 17.0144C53.2416 16.5079 53.3855 15.9151 53.3855 15.236C53.3855 14.5569 53.2416 13.9641 52.9538 13.4576C52.6776 12.9511 52.3035 12.5655 51.8315 12.3008C51.3711 12.0245 50.8704 11.8864 50.3294 11.8864C49.7884 11.8864 49.2819 12.0245 48.81 12.3008C48.338 12.5655 47.9582 12.9511 47.6704 13.4576C47.3941 13.9641 47.256 14.5569 47.256 15.236C47.256 15.9151 47.3941 16.5079 47.6704 17.0144C47.9582 17.5209 48.338 17.9122 48.81 18.1885C49.2819 18.4532 49.7884 18.5856 50.3294 18.5856Z"
              fill="#5F6368"
            />
            <path
              d="M38.4057 19.915C37.2431 19.915 36.1726 19.633 35.1942 19.069C34.2158 18.505 33.4388 17.728 32.8633 16.7381C32.2878 15.7481 32 14.6546 32 13.4575C32 12.2604 32.2878 11.1669 32.8633 10.177C33.4388 9.18704 34.2158 8.41006 35.1942 7.84604C36.1726 7.28201 37.2431 7 38.4057 7C39.3151 7 40.1669 7.16115 40.9611 7.48345C41.7668 7.80575 42.4287 8.26042 42.9467 8.84747L41.8935 9.9007C41.5021 9.41725 41.0014 9.04891 40.3913 8.79567C39.7812 8.53093 39.1251 8.39855 38.423 8.39855C37.5482 8.39855 36.7309 8.6115 35.9712 9.0374C35.223 9.45178 34.6187 10.0446 34.1583 10.8158C33.7093 11.5755 33.4849 12.4561 33.4849 13.4575C33.4849 14.4589 33.7093 15.3453 34.1583 16.1165C34.6187 16.8762 35.2288 17.469 35.9885 17.8949C36.7482 18.3093 37.5597 18.5165 38.423 18.5165C39.2518 18.5165 39.9424 18.3899 40.4949 18.1366C41.0589 17.8719 41.5424 17.5266 41.9453 17.1007C42.2445 16.7784 42.4863 16.3928 42.6704 15.9438C42.8546 15.4834 42.9697 14.9769 43.0158 14.4244H38.4403V13.0604H44.3798C44.4373 13.3827 44.4661 13.682 44.4661 13.9582C44.4661 14.7179 44.3453 15.4604 44.1035 16.1856C43.8618 16.8992 43.4762 17.5266 42.9467 18.0676C41.8071 19.2992 40.2935 19.915 38.4057 19.915Z"
              fill="#5F6368"
            />
            <path
              d="M15.9072 12.2878V15.7374H20.701C20.4905 16.8468 19.8588 17.7861 18.9114 18.4177L21.8022 20.6608C23.4865 19.1061 24.4582 16.8226 24.4582 14.1099C24.4582 13.4783 24.4015 12.8709 24.2962 12.2879L15.9072 12.2878Z"
              fill="#4285F4"
            />
            <path
              d="M10.9149 15.6028L10.2629 16.1019L7.95508 17.8995C9.42073 20.8065 12.4247 22.8147 15.9066 22.8147C18.3116 22.8147 20.3278 22.0212 21.8016 20.6608L18.9108 18.4178C18.1172 18.9522 17.105 19.2761 15.9066 19.2761C13.5907 19.2761 11.6231 17.7133 10.9186 15.6079L10.9149 15.6028Z"
              fill="#34A853"
            />
            <path
              d="M7.95544 9.91528C7.34816 11.1137 7 12.466 7 13.9073C7 15.3487 7.34816 16.701 7.95544 17.8994C7.95544 17.9074 10.9192 15.5997 10.9192 15.5997C10.7411 15.0652 10.6358 14.4984 10.6358 13.9072C10.6358 13.316 10.7411 12.7492 10.9192 12.2148L7.95544 9.91528Z"
              fill="#FBBC05"
            />
            <path
              d="M15.9068 8.54673C17.2186 8.54673 18.3847 9.00018 19.3159 9.87473L21.8666 7.32403C20.32 5.88269 18.3118 5 15.9068 5C12.4249 5 9.42073 7.0001 7.95508 9.91523L10.9187 12.2149C11.6232 10.1096 13.5909 8.54673 15.9068 8.54673Z"
              fill="#EA4335"
            />
          </svg>