<svg width="24" height="24" viewBox="0 0 24 24" fill="none" xmlns="http://www.w3.org/2000/svg">
<path d="M14.5977 10.665C15.099 10.0852 16.0017 10.0439 16.6143 10.5732L17.3535 11.2129C17.966 11.7424 18.0569 12.6417 17.5557 13.2217L13.8203 17.542C13.5973 17.7999 13.2946 17.9503 12.9736 17.9922C12.8372 18.0573 12.6847 18.0947 12.5234 18.0947H2.04785C1.46936 18.0947 1.00015 17.6263 1 17.0479C1 16.4693 1.46927 16 2.04785 16H10.5459L8.16113 13.2178L5.27539 15.2803C4.80458 15.6166 4.15075 15.5079 3.81445 15.0371C3.47828 14.5664 3.58696 13.9125 4.05762 13.5762L7.72461 10.957L7.80957 10.9023C8.24156 10.6525 8.79689 10.742 9.12793 11.1279L11.6514 14.0713L14.5977 10.665ZM18.5 6C19.8807 6 21 7.11929 21 8.5C21 9.88071 19.8807 11 18.5 11C17.1193 11 16 9.88071 16 8.5C16 7.11929 17.1193 6 18.5 6Z" fill="#DBFE77"/>
<path d="M8.60835 8.50602L8.70992 8.52262L15.7099 10.0226L15.8085 10.049C16.2908 10.2048 16.586 10.7039 16.4775 11.2101C16.3616 11.7499 15.8299 12.0934 15.29 11.9777L8.28999 10.4777L8.19136 10.4513C7.70915 10.2955 7.41394 9.7964 7.52242 9.2902C7.63109 8.78421 8.10474 8.45049 8.60835 8.50602Z" fill="#DBFE77"/>
<path d="M20.5005 10C20.5005 9.44772 20.9482 9 21.5005 9C22.0528 9 22.5005 9.44772 22.5005 10V13.5C22.5005 13.8033 22.3631 14.0905 22.1265 14.2803C21.89 14.47 21.5798 14.5423 21.2837 14.4766L16.7837 13.4766L16.6851 13.4492C16.2039 13.29 15.9118 12.7887 16.024 12.2832C16.1438 11.7441 16.6783 11.4038 17.2173 11.5234L20.5005 12.2529V10Z" fill="#DBFE77"/>
</svg>
