<svg width="24" height="24" viewBox="0 0 24 24" fill="none" xmlns="http://www.w3.org/2000/svg">
<path d="M8.95215 5.66309C9.1762 5.51639 9.45222 5.46484 9.7168 5.52344L14.2158 6.52246C14.5361 6.52079 14.8596 6.59726 15.1562 6.75781C15.2144 6.78929 15.2713 6.82433 15.3271 6.8623C15.6402 7.07516 15.8702 7.36345 16.0137 7.68555L18.3281 10.7715L21.1064 9.58105C21.614 9.36372 22.2014 9.59891 22.4189 10.1064C22.6361 10.6139 22.401 11.2014 21.8936 11.4189L18.3936 12.9189C17.9698 13.1004 17.4769 12.9683 17.2002 12.5996L15.416 10.2207L13.2617 13.3887L15.4863 14.625C15.7216 14.7558 15.8949 14.9766 15.9658 15.2363L17.4658 20.7363C17.611 21.2689 17.2961 21.8183 16.7637 21.9639C16.231 22.1089 15.6815 21.7952 15.5361 21.2627L14.1465 16.168L10.3672 14.0684L7.80957 17.5869C7.53217 17.9683 7.02574 18.1045 6.59473 17.9131L2.09473 15.9131L2.00391 15.8662C1.56381 15.6147 1.37661 15.066 1.58691 14.5928C1.79736 14.1199 2.33008 13.8908 2.81152 14.0488L2.90723 14.085L6.66797 15.7559L10.1924 10.9111C10.2114 10.885 10.2309 10.8597 10.252 10.8359L12.1094 8.10449L9.7627 7.58301L7.14062 9.76855C6.71638 10.122 6.08499 10.0648 5.73145 9.64062C5.37832 9.21642 5.43542 8.58493 5.85938 8.23145L8.85938 5.73145L8.95215 5.66309ZM17.5 2C18.8807 2 20 3.11929 20 4.5C20 5.88071 18.8807 7 17.5 7C16.1193 6.99995 15 5.88068 15 4.5C15 3.11932 16.1193 2.00005 17.5 2Z" fill="#DBFE77"/>
</svg>
